<svg width="360" height="223" viewBox="0 0 360 223" fill="none" xmlns="http://www.w3.org/2000/svg">
<g clip-path="url(#clip0)">
<g filter="url(#filter0_d)">
<rect x="-0.211914" y="0.339844" width="228.738" height="143.89" rx="20" transform="rotate(-0.0609002 -0.211914 0.339844)" fill="#C35BC0"/>
</g>
<path fill-rule="evenodd" clip-rule="evenodd" d="M10.3391 0.159812C9.99171 0.247457 9.97011 0.306773 10.2257 0.474982C10.4363 0.612205 10.322 0.631682 9.88551 0.531642C9.44901 0.431602 9.27711 0.459932 9.37521 0.614861C9.46881 0.764478 9.34371 0.804317 9.03411 0.723754C8.70111 0.638764 8.59581 0.680374 8.70471 0.853895C8.80911 1.01945 8.74161 1.06283 8.51391 0.976953C8.31951 0.903472 8.16201 0.960132 8.16201 1.10355C8.16201 1.24697 8.06031 1.30186 7.93521 1.22572C7.81101 1.15047 7.70841 1.20005 7.70841 1.33727C7.70841 1.4745 7.59141 1.51522 7.44741 1.42846C7.30431 1.34082 7.04871 1.45413 6.88041 1.68077C6.71301 1.90653 6.57531 2.00303 6.57531 1.89502C6.57531 1.78701 6.41421 1.89325 6.21801 2.1314C6.02181 2.36955 5.93091 2.41381 6.01641 2.22967C6.10191 2.04552 5.93091 2.15087 5.63661 2.46339C5.34231 2.7759 5.20101 2.87594 5.32341 2.68649C5.44491 2.49614 4.80591 3.08399 3.90321 3.99143C2.99961 4.89888 2.30481 5.68503 2.35881 5.73815C2.41281 5.79127 2.27331 6.01525 2.04831 6.23658C1.47771 6.79787 0.727112 8.87303 0.449912 10.6525C0.292412 11.668 0.237512 44.582 0.278912 112.503L0.341012 212.853L0.925112 214.33C2.53251 218.387 5.18301 220.896 9.29511 222.254C10.6865 222.713 348.854 223.034 348.566 222.576C348.493 222.459 348.839 222.426 349.381 222.497C350.12 222.595 350.283 222.559 350.139 222.33C350.016 222.135 350.044 222.093 350.223 222.201C350.6 222.43 351.875 222.121 351.7 221.842C351.607 221.696 351.74 221.671 352.066 221.773C352.368 221.867 352.523 221.847 352.444 221.722C352.371 221.607 352.691 221.335 353.153 221.118C354.548 220.465 356.104 219.231 357.208 217.902C357.783 217.209 358.331 216.666 358.426 216.692C358.52 216.72 358.888 216.067 359.243 215.243L359.887 213.745V111.5V9.25372L359.274 7.84784C357.746 4.34025 355.422 2.14999 352.13 1.11506L350.139 0.489147L180.986 0.412125C87.9515 0.368745 11.9501 0.260737 12.0941 0.170435C12.3785 -0.007512 11.0366 -0.0163651 10.3391 0.159812ZM38.6018 18.7318H41.0336V21.1346V23.5373L42.7337 25.199L44.4347 26.8608L42.7418 28.5384L41.048 30.2161L40.9841 32.5577L40.9202 34.8994L38.4641 34.9348L36.008 34.9702L34.4591 36.6071L32.9093 38.2441L31.2479 36.6346L29.5856 35.0251L27.0917 34.9622L24.5978 34.8994L24.5618 32.4719L24.5249 30.0443L22.8671 28.4021L21.2084 26.7598L22.8464 25.1379L24.4844 23.5152V21.124V18.7318H26.927H29.3696L31.0589 17.0586L32.7482 15.3863L34.4591 17.0586L36.1691 18.7318H38.6018ZM32.0786 18.0625C31.8536 18.3078 31.7096 18.5149 31.76 18.5238C33.326 18.7823 34.1306 18.4857 33.3827 17.9271C32.8328 17.5163 32.5547 17.5455 32.0786 18.0625ZM25.9955 20.2183C25.7804 20.4308 25.8083 21.6304 26.0288 21.6304C26.2493 21.6304 27.4319 20.4458 27.4319 20.2245C27.4319 20.0262 26.1962 20.0209 25.9955 20.2183ZM28.0826 22.0057L26.0711 23.941V26.7492V29.5565L27.9467 31.3918L29.8214 33.2261H32.7608H35.7011L37.574 31.3086L39.4469 29.3901V26.6943V23.9994L37.4489 22.0341L35.4518 20.0695H32.7725H30.0932L28.0826 22.0057ZM38.5397 20.8504C38.9627 21.2798 39.3398 21.6304 39.3776 21.6304C39.4154 21.6304 39.4469 21.2798 39.4469 20.8504C39.4469 20.0988 39.4154 20.0695 38.609 20.0695H37.7711L38.5397 20.8504ZM249.825 22.4935V24.2491L250.994 24.4014C257.015 25.1875 256.791 33.6723 250.749 33.6723H249.844L249.778 35.2889L249.711 36.9064L248.408 36.9728L247.104 37.0401V35.3562V33.6723H246.128C244.665 33.6723 242.92 32.7321 242.228 31.5706C240.24 28.2339 242.531 24.3066 246.465 24.3066H247.104V22.5227V20.7388H248.465H249.825V22.4935ZM35.3366 25.2982C36.7244 27.6841 37.8593 29.7407 37.8593 29.8699C37.8593 30.0275 36.1358 30.1045 32.6303 30.1045C27.7199 30.1045 27.404 30.0797 27.4724 29.7035C27.5984 29.0059 32.2676 20.9619 32.5466 20.9619C32.6933 20.9619 33.9488 22.9132 35.3366 25.2982ZM195.991 22.8574L195.834 24.3066H197.079H198.324L198.514 22.9132L198.704 21.5188L199.7 21.4489L200.696 21.3789L200.543 22.8423L200.391 24.3066H201.531H202.671V25.3097V26.3136H201.434H200.198L200.064 27.1503C199.744 29.1493 199.672 28.9899 200.889 28.9899H201.99V29.993V30.9969H200.766H199.542L199.384 32.3346L199.226 33.6723H198.206H197.185L197.344 32.3346L197.501 30.9969H196.26C194.91 30.9969 194.736 31.2289 194.736 33.0314C194.736 33.6449 194.691 33.6723 193.687 33.6723H192.638L192.792 32.3346L192.945 30.9969L191.801 30.9969H190.656V29.993V28.9899H191.898C193.26 28.9899 193.201 29.059 193.46 27.1503L193.575 26.3136H192.455L191.335 26.3136V25.3097V24.3066L192.557 24.3066H193.777L193.939 23.0247C194.145 21.3949 194.135 21.4073 195.23 21.4073H196.149L195.991 22.8574ZM32.0264 23.7825C29.8421 27.5221 29.2454 28.596 29.2454 28.7863C29.2454 28.9005 30.8834 28.9899 32.9858 28.9899C35.1422 28.9899 36.7262 28.9014 36.7262 28.7819C36.7262 28.5526 33.4115 22.7467 33.1082 22.4448C33.0038 22.3413 32.5169 22.9433 32.0264 23.7825ZM90.3662 23.2726C90.3797 23.2894 90.4544 23.7126 90.5327 24.2128L90.674 25.1229L89.4869 25.0264C88.0325 24.9078 87.4619 25.3743 87.4619 26.681C87.4619 28.0834 88.5509 28.6393 90.1934 28.0754L90.908 27.8311V25.5115V23.1912H93.5072C96.0911 23.1912 96.1109 23.1956 96.9074 23.8835L97.7084 24.5758V23.8835V23.1912H100.429H103.15V24.0738V24.9556L101.637 25.0211C99.6092 25.1096 99.3347 25.6443 101.317 25.6443H102.696V26.5252V27.4061L101.392 27.4734C99.2474 27.5832 99.5849 28.2091 101.789 28.2091H103.489L103.554 25.7001L103.618 23.1912H105.775C108.236 23.1912 109.039 23.4771 109.733 24.5961L110.175 25.3097L110.176 24.2509L110.177 23.1912H114.938H119.698V24.0835C119.698 24.9742 119.697 24.9759 118.799 24.9759H117.9L117.836 27.484L117.771 29.993H116.525H115.278L115.213 27.484L115.15 24.9759H113.91H112.671V27.5398V30.1045H111.424H110.177L110.176 29.0457L110.175 27.986L109.718 28.7243C108.941 29.9771 108.294 30.1045 102.703 30.1045H97.7084V28.2091C97.7084 26.2738 97.667 26.141 97.1891 26.5438C97.0388 26.6713 96.7427 26.8971 96.5321 27.0458C96.1766 27.2981 96.1874 27.4097 96.6914 28.6101C97.3079 30.0833 97.2413 30.1762 95.6438 30.0629L94.6601 29.993L94.1606 28.3206C93.5207 26.1746 93.5207 26.0905 94.1813 26.0905C94.8617 26.0905 95.1191 25.7346 94.7537 25.3C93.8096 24.1818 93.401 24.852 93.401 27.5177V30.0603L90.5174 30.0647C86.6339 30.0709 85.7627 29.6707 85.013 27.5363C84.6962 26.6324 84.644 26.589 84.2318 26.8873C83.7566 27.2317 83.7305 27.0794 84.7385 29.8381C84.8195 30.0603 84.5324 30.1125 83.5181 30.0612L82.1924 29.993L81.6929 28.3206C81.0917 26.3074 81.0611 26.0056 81.4778 26.1631C82.043 26.3765 82.6694 25.7559 82.313 25.3345C81.3374 24.1783 80.9324 24.8263 80.9324 27.5451V30.1143L76.7951 30.0541L72.6578 29.993L72.5939 27.484L72.53 24.9759H71.5175H70.505V27.5398V30.1045H69.2576H68.0111V27.5398V24.9759H66.8771H65.744V27.5398V30.1045H64.3238L62.9045 30.1045L62 28.3764L61.0964 26.6483L61.0307 28.3791L60.9641 30.109L55.2491 30.0921C47.6306 30.07 46.5551 29.6123 46.7603 26.4774C46.9088 24.1916 48.2192 23.138 50.7815 23.2425L52.2548 23.3027L52.3232 24.2243L52.3916 25.1468L51.4169 25.0388C50.1011 24.8945 49.1948 25.5567 49.1948 26.6642C49.1948 28.0834 50.3927 28.6641 52.1081 28.0754L52.8218 27.8311V25.5115V23.1912H55.5425H58.2632V24.0738V24.9556L56.7323 25.0211C54.6686 25.1096 54.5066 25.7205 56.519 25.8232L57.8357 25.8905L57.7655 26.7156L57.6962 27.5398L56.4488 27.561C55.5398 27.577 55.2023 27.6673 55.2023 27.8957C55.2023 28.1383 55.6055 28.2091 56.9879 28.2091H58.7726L58.7321 25.7001L58.6916 23.1912H60.1676H61.6436L62.5409 25.0317L63.4373 26.8714L63.4571 25.0317L63.4769 23.1912L70.8443 23.1912H78.2126V24.0835V24.9759H76.6259C74.528 24.9759 74.2868 25.5841 76.3424 25.6895L77.6456 25.7559L77.7149 26.581L77.7851 27.4052L76.4684 27.4725C74.3309 27.5823 74.6522 28.1852 76.8518 28.1923L78.5528 28.1976L78.5798 26.7536C78.5951 25.9595 78.6203 24.8334 78.6365 24.2509L78.6662 23.1912H80.9441C83.4542 23.1912 84.3011 23.4585 84.7295 24.3837L84.9878 24.9405L85.796 24.1907C86.804 23.2558 89.8451 22.6449 90.3662 23.2726ZM34.7759 25.9046C36.2915 28.6128 36.4742 28.3481 33.1379 28.2719L30.3947 28.2091L31.769 25.8117C32.525 24.4934 33.2243 23.4647 33.3242 23.5258C33.4241 23.586 34.0775 24.6563 34.7759 25.9046ZM237.807 24.8361C239.198 25.5169 240.114 26.9776 240.158 28.5862L240.19 29.7699H236.619C232.789 29.7699 232.704 29.8 233.711 30.7906C234.486 31.552 236.28 31.7008 237.451 31.0996C238.284 30.6729 239.877 31.8752 239.334 32.5214C237.502 34.7064 232.153 33.8636 230.755 31.1687C228.522 26.8643 233.26 22.6095 237.807 24.8361ZM276.628 24.6882C278.412 25.3903 279.701 27.6983 279.388 29.6291C278.44 35.4571 269.012 34.8923 269.021 29.0085C269.024 26.4801 270.424 24.9122 273.288 24.227C273.957 24.0676 275.642 24.2996 276.628 24.6882ZM298.626 24.3916C300.798 25.0344 301.999 26.527 302.052 28.6464L302.079 29.7699L298.452 29.8814L294.825 29.993L295.544 30.7181C296.391 31.5715 298.451 31.7645 299.441 31.0828C300.123 30.6127 301.734 31.9123 301.224 32.5214C300.677 33.173 299.027 33.706 297.528 33.7148C290.577 33.7538 290.289 24.6068 297.226 24.1092C297.424 24.0951 298.054 24.2217 298.626 24.3916ZM320.07 24.8263C323.418 26.4659 323.428 31.313 320.087 33.1013C316.623 34.9551 312.191 32.6799 312.172 29.0377C312.152 25.2955 316.4 23.03 320.07 24.8263ZM342.372 24.6882C346.081 26.1481 346.013 31.8468 342.266 33.3359C338.568 34.8073 334.837 32.6241 334.837 28.9899C334.837 25.2681 338.513 23.1699 342.372 24.6882ZM208.182 25.979C208.669 26.8377 209.342 28.0161 209.677 28.5977L210.288 29.6557L211.863 26.9838L213.439 24.312L214.743 24.3093L216.046 24.3066V28.9899V33.6723H214.799H213.553L213.55 30.9412L213.547 28.2091L212.164 30.495C210.332 33.5218 210.036 33.5581 208.522 30.9394C206.792 27.947 206.865 27.947 206.865 30.9358V33.5608L205.562 33.6281L204.258 33.6945V28.9908V24.2863L205.778 24.3518L207.298 24.4182L208.182 25.979ZM221.487 26.0905V27.8744H223.527H225.568V26.0799V24.2854L226.956 24.3518L228.346 24.4182L228.333 28.9899L228.321 33.5608L226.945 33.6272L225.568 33.6936V31.9548V30.2161L223.584 30.2577L221.601 30.2984L221.534 31.9858L221.468 33.6723H220.117H218.766V28.9899V24.3066H220.126H221.487V26.0905ZM260.076 27.0006L260.139 29.6938L262.373 27.0006L264.608 24.3066H265.944H267.28V28.9899V33.6723H265.814H264.347L264.284 31.0315L264.22 28.3897L262.066 31.0182L259.913 33.6458L258.609 33.6591L257.305 33.6723V28.9899V24.3066H258.659H260.012L260.076 27.0006ZM290.255 28.9899L290.29 33.5608L288.874 33.6272L287.456 33.6936V30.1152V26.5367H286.015H284.574L284.422 28.5251C284.103 32.6888 283.179 33.9919 280.743 33.7122C279.623 33.5829 279.538 31.5848 280.643 31.367C281.625 31.174 281.847 30.5259 281.954 27.5469C282.006 26.0711 282.09 24.736 282.141 24.5802C282.211 24.3615 283.148 24.3102 286.226 24.3571L290.22 24.4182L290.255 28.9899ZM311.94 25.4212V26.5367H310.353H308.766V30.1045V33.6723H307.407H306.046V30.1143V26.5562L304.402 26.4907L302.759 26.4252L302.686 25.6789C302.549 24.2695 302.42 24.3066 307.399 24.3066H311.94V25.4212ZM331.55 24.7219C333.264 25.4894 333.669 27.075 332.466 28.3109C331.86 28.9333 331.857 28.9492 332.325 29.0953C333.012 29.3095 333.551 30.4604 333.399 31.3856C333.102 33.1872 331.905 33.6608 327.639 33.6679L324.408 33.6723V28.9899V24.3066L327.526 24.3111C330.049 24.3155 330.816 24.3934 331.55 24.7219ZM32.7806 26.0905L32.1641 27.2051H33.5384C35.1359 27.2051 35.0873 27.2848 34.2908 25.9878C33.5213 24.7342 33.5321 24.7334 32.7806 26.0905ZM105.87 26.6341V28.0975H106.555C107.993 28.0975 108.035 25.3779 106.6 25.2398L105.87 25.1707V26.6341ZM23.7257 26.2756C23.2451 26.7979 23.2532 27.0493 23.7653 27.5053C24.3854 28.0577 24.4844 27.9701 24.4844 26.8714C24.4844 25.7825 24.3071 25.6435 23.7257 26.2756ZM41.0336 26.7598C41.0336 27.7558 41.2226 27.862 41.8274 27.2051C42.2234 26.7749 42.2234 26.7439 41.8274 26.3136C41.2226 25.6567 41.0336 25.763 41.0336 26.7598ZM195.542 26.5925C195.494 26.7457 195.397 27.3477 195.327 27.9302L195.198 28.9899H196.448C197.817 28.9899 197.802 29.005 198 27.3725L198.128 26.3136H196.878C196.077 26.3136 195.598 26.4137 195.542 26.5925ZM233.635 26.9998C232.755 28.0294 232.86 28.0975 235.316 28.0975C237.816 28.0975 237.964 27.9931 236.92 26.9652C235.954 26.0144 234.465 26.0303 233.635 26.9998ZM246.225 26.5606C243.695 27.0706 243.505 30.742 245.971 31.4688C247.161 31.8203 247.129 31.8955 247.055 28.9545L246.99 26.4057L246.225 26.5606ZM249.825 29.0129C249.825 31.9584 249.847 31.9938 251.303 31.3139C253.469 30.3028 253.078 27.1733 250.714 26.5828L249.825 26.3606V29.0129ZM295.6 26.9652C294.555 27.9931 294.704 28.0975 297.205 28.0975C299.661 28.0975 299.766 28.0294 298.884 26.9998C298.056 26.0303 296.567 26.0144 295.6 26.9652ZM327.042 27.2459L327.067 28.1781L328.514 28.1197C331.425 28.0028 331.413 26.3136 328.501 26.3136H327.016L327.042 27.2459ZM272.892 26.7775C271.902 27.345 271.53 29.1404 272.157 30.3321C272.973 31.8858 275.416 31.8858 276.232 30.3321C277.445 28.0258 275.088 25.5186 272.892 26.7775ZM315.701 27.2229C314.829 28.2427 314.864 29.8929 315.777 30.7906C317.523 32.5082 320.238 30.8305 319.733 28.3454C319.36 26.5146 316.894 25.8276 315.701 27.2229ZM338.634 26.7775C337.245 27.5734 337.274 30.4737 338.678 31.2129C340.455 32.1487 342.205 31.0456 342.205 28.9899C342.205 26.9369 340.356 25.7913 338.634 26.7775ZM327.114 29.7699C327.105 29.7699 327.08 30.1966 327.057 30.7181L327.016 31.6662L328.631 31.6653C330.392 31.6653 330.848 31.4121 330.717 30.5074C330.649 30.0337 329.36 29.7699 327.114 29.7699ZM38.5397 32.6693L37.7711 33.4492H38.609C39.4154 33.4492 39.4469 33.42 39.4469 32.6693C39.4469 32.2399 39.4154 31.8884 39.3776 31.8884C39.3398 31.8884 38.9627 32.2399 38.5397 32.6693ZM26.1134 32.8348C26.1872 33.582 26.639 33.8485 27.3671 33.5732C27.6713 33.459 27.6254 33.3288 27.0854 32.7737C26.2565 31.9238 26.0252 31.938 26.1134 32.8348ZM31.7456 35.1782C31.7744 35.8378 32.8283 36.0892 33.3359 35.5572L33.8579 35.0109H32.7986C32.2154 35.0109 31.742 35.0862 31.7456 35.1782ZM81.8621 72.6455C83.1203 73.2554 84.4298 74.4966 85.0922 75.7077C85.8671 77.1242 85.8563 100.621 85.0805 102.048C84.3137 103.459 83.5757 104.212 82.2554 104.931L81.0458 105.59H64.4966H47.9483L46.853 105.04C45.5669 104.394 44.3339 103.123 43.7363 101.83C43.2152 100.7 43.0595 77.9201 43.5635 76.4665C43.9406 75.3766 44.9981 73.9238 45.8468 73.3298C47.7332 72.0089 47.3714 72.0319 64.8368 72.0886L80.819 72.1399L81.8621 72.6455ZM29.7143 77.1658C30.6476 77.6572 32.435 82.0014 32.9876 85.123C34.1972 91.9461 31.508 102.294 28.7054 101.603C27.602 101.33 27.5678 100.6 28.5614 98.516C31.3217 92.7207 31.319 85.8959 28.5542 80.0909C27.6659 78.2264 27.6506 78.0627 28.295 77.3252C28.6838 76.879 29.0843 76.8339 29.7143 77.1658ZM25.2827 79.9705C25.9433 80.6717 27.1304 83.6153 27.5633 85.6259C28.7468 91.1157 26.4329 99.7643 23.9453 99.1499C22.8878 98.8887 22.7141 98.0689 23.4242 96.6896C25.8272 92.0205 25.874 86.7626 23.552 82.2369C22.3955 79.9829 23.6924 78.2831 25.2827 79.9705ZM20.339 82.3423C23.5385 85.7773 22.7663 96.7817 19.3265 96.7817C18.0908 96.7817 17.9036 95.7458 18.8 93.8805C20.204 90.9599 20.2067 87.7161 18.8072 84.8317C17.693 82.5344 18.8162 80.708 20.339 82.3423ZM15.6968 84.5723C17.5274 85.9641 17.9315 90.6128 16.4393 93.1174C14.8517 95.7821 12.8285 94.448 14.1677 91.6185C14.921 90.0267 14.9219 88.52 14.1704 87.0627C13.1291 85.0442 14.1416 83.3905 15.6968 84.5723ZM353.676 221.08C353.127 221.362 352.776 221.654 352.897 221.727C353.018 221.801 353.568 221.565 354.122 221.204C355.315 220.425 355.077 220.359 353.676 221.08Z" fill="#C35BC0"/>
<path fill-rule="evenodd" clip-rule="evenodd" d="M12.094 0.16932C11.95 0.259621 87.9514 0.3694 180.986 0.41278L350.139 0.491572L351.83 1.01656C353.981 1.68586 354.108 1.57342 352.133 0.751854L350.593 0.110889L181.474 0.0577705C88.4589 0.0294406 12.238 0.0790179 12.094 0.16932ZM31.0588 17.0584L29.3695 18.7316H26.9269H24.4843V21.1237V23.5149L22.8463 25.1377L21.2083 26.7596L22.867 28.4019L24.5248 30.0441L24.5617 32.4716L24.5977 34.8991L27.0916 34.962L29.5855 35.0249L31.2478 36.6343L32.9092 38.2438L34.459 36.6069L36.0079 34.97L38.464 34.9346L40.9201 34.8991L40.984 32.5575L41.0479 30.2159L42.7417 28.5382L44.4346 26.8605L42.7336 25.1988L41.0335 23.5371V21.1343V18.7316H38.6017H36.169L34.459 17.0584L32.7481 15.386L31.0588 17.0584ZM33.3826 17.9269C34.1305 18.4855 33.3258 18.7821 31.7599 18.5236C31.5583 18.4899 32.506 17.617 32.7373 17.6232C32.8741 17.6276 33.1639 17.764 33.3826 17.9269ZM27.4318 20.2242C27.4318 20.4456 26.2492 21.6301 26.0287 21.6301C25.8082 21.6301 25.7803 20.4305 25.9954 20.218C26.1961 20.0206 27.4318 20.0259 27.4318 20.2242ZM37.4488 22.0338L39.4467 23.9992V26.6941V29.3899L37.5739 31.3083L35.701 33.2259H32.7607H29.8213L27.9466 31.3915L26.071 29.5563V26.749V23.9408L28.0825 22.0055L30.0931 20.0693H32.7724H35.4517L37.4488 22.0338ZM39.4467 20.8502C39.4467 21.2795 39.4153 21.6301 39.3775 21.6301C39.3397 21.6301 38.9626 21.2795 38.5396 20.8502L37.771 20.0693H38.6089C39.4153 20.0693 39.4467 20.0985 39.4467 20.8502ZM247.104 22.5225V24.3064H246.465C242.531 24.3064 240.24 28.2336 242.228 31.5704C242.92 32.7319 244.665 33.6721 246.128 33.6721H247.104V35.356V37.0398L248.408 36.9725L249.711 36.9061L249.778 35.2887L249.844 33.6721H250.749C256.79 33.6721 257.015 25.1873 250.994 24.4011L249.824 24.2489V22.4933V20.7386H248.465H247.104V22.5225ZM29.9122 25.1315C28.6099 27.4254 27.5119 29.4828 27.4723 29.7033C27.4039 30.0795 27.7198 30.1043 32.6302 30.1043C36.1357 30.1043 37.8592 30.0273 37.8592 29.8697C37.8592 29.4244 32.812 20.9617 32.5465 20.9617C32.3998 20.9617 31.2145 22.8377 29.9122 25.1315ZM194.205 21.5743C194.149 21.6664 194.028 22.3189 193.939 23.0245L193.777 24.3064H192.557H191.335V25.3095V26.3134H192.455H193.574L193.46 27.15C193.201 29.0588 193.259 28.9897 191.898 28.9897H190.656V29.9928V30.9967H191.801H192.945L192.791 32.3344L192.638 33.6721H193.687C194.691 33.6721 194.736 33.6447 194.736 33.0311C194.736 31.2286 194.91 30.9967 196.26 30.9967H197.501L197.344 32.3344L197.185 33.6721H198.206H199.226L199.384 32.3344L199.541 30.9967H200.766H201.99V29.9928V28.9897H200.889C199.672 28.9897 199.744 29.1491 200.063 27.15L200.198 26.3134H201.434H202.671V25.3095V24.3064H201.53H200.391L200.543 22.8421L200.696 21.3787L199.7 21.4486L198.704 21.5186L198.514 22.9129L198.324 24.3064H197.079H195.833L195.991 22.8572L196.149 21.407H195.23C194.724 21.407 194.263 21.4823 194.205 21.5743ZM35.0125 25.6043C35.9548 27.2377 36.7261 28.6674 36.7261 28.7817C36.7261 28.9012 35.1421 28.9897 32.9857 28.9897C30.8833 28.9897 29.2453 28.9003 29.2453 28.7861C29.2453 28.5957 29.842 27.5219 32.0263 23.7823C32.5168 22.943 33.0037 22.341 33.1081 22.4446C33.2134 22.5491 34.0702 23.9709 35.0125 25.6043ZM87.5661 23.2228C87.0054 23.3494 86.2683 23.7522 85.7958 24.1904L84.9876 24.9403L84.7293 24.3834C84.3009 23.4583 83.454 23.1909 80.9439 23.1909H78.666L78.6363 24.2506C78.6201 24.8332 78.5949 25.9593 78.5796 26.7534L78.5526 28.1973L76.8516 28.192C74.652 28.185 74.3307 27.5821 76.4682 27.4723L77.785 27.405L77.7147 26.5808L77.6454 25.7557L76.3422 25.6893C74.2866 25.5839 74.5278 24.9757 76.6257 24.9757H78.2124V24.0833V23.1909L70.8441 23.1909H63.4767L63.457 25.0315L63.4372 26.8712L62.5408 25.0315L61.6435 23.1909H60.1674H58.6915L58.732 25.6999L58.7725 28.2089H56.9878C55.6054 28.2089 55.2022 28.138 55.2022 27.8955C55.2022 27.667 55.5397 27.5767 56.4487 27.5608L57.6961 27.5396L57.7654 26.7153L57.8356 25.8902L56.5188 25.8229C54.5065 25.7202 54.6684 25.1094 56.7321 25.0209L58.2631 24.9553V24.0736V23.1909H55.5424H52.8217V25.5113V27.8308L52.108 28.0752C50.3926 28.6639 49.1947 28.0831 49.1947 26.664C49.1947 25.5565 50.101 24.8943 51.4168 25.0386L52.3915 25.1466L52.3231 24.2241L52.2547 23.3025L50.7814 23.2423C48.2191 23.1378 46.9087 24.1913 46.7602 26.4772C46.555 29.6121 47.6305 30.0698 55.249 30.0919L60.964 30.1087L61.0306 28.3788L61.0963 26.6481L61.9999 28.3762L62.9044 30.1043H64.3237H65.7438V27.5396V24.9757H66.8769H68.011V27.5396V30.1043H69.2575H70.5048V27.5396V24.9757H71.5173H72.5298L72.5937 27.4838L72.6576 29.9928L76.7949 30.0538L80.9323 30.114V27.5449C80.9323 24.8261 81.3372 24.178 82.3128 25.3343C82.6693 25.7557 82.0428 26.3763 81.4776 26.1629C81.0609 26.0053 81.0915 26.3072 81.6927 28.3204L82.1922 29.9928L83.5179 30.0609C84.5322 30.1123 84.8193 30.06 84.7383 29.8378C83.7303 27.0792 83.7564 27.2315 84.2316 26.8871C84.6438 26.5887 84.696 26.6321 85.0128 27.536C85.7625 29.6705 86.6337 30.0707 90.5172 30.0645L93.4008 30.06V27.5174C93.4008 24.8518 93.8094 24.1816 94.7535 25.2997C95.1189 25.7344 94.8615 26.0903 94.1811 26.0903C93.5205 26.0903 93.5205 26.1744 94.1604 28.3204L94.6599 29.9928L95.6436 30.0627C97.2411 30.176 97.3077 30.0831 96.6912 28.6099C96.1872 27.4094 96.1764 27.2979 96.5319 27.0456C96.7425 26.8968 97.0386 26.6711 97.1889 26.5436C97.6668 26.1408 97.7082 26.2736 97.7082 28.2089V30.1043H102.703C108.294 30.1043 108.941 29.9768 109.718 28.7241L110.175 27.9858L110.176 29.0455L110.177 30.1043H111.424H112.671V27.5396V24.9757H113.91H115.149L115.213 27.4838L115.278 29.9928H116.525H117.771L117.836 27.4838L117.9 24.9757H118.799C119.697 24.9757 119.698 24.9739 119.698 24.0833V23.1909H114.938H110.177L110.176 24.2506L110.175 25.3095L109.733 24.5959C109.039 23.4769 108.236 23.1909 105.775 23.1909H103.618L103.554 25.6999L103.489 28.2089H101.789C99.5847 28.2089 99.2472 27.5829 101.392 27.4732L102.696 27.4059V26.525V25.6441H101.316C99.3345 25.6441 99.609 25.1094 101.637 25.0209L103.15 24.9553V24.0736V23.1909H100.429H97.7082V23.8832V24.5755L96.9072 23.8832C96.1107 23.1953 96.091 23.1909 93.507 23.1909H90.9078V25.5113V27.8308L90.1932 28.0752C88.5507 28.6391 87.4617 28.0831 87.4617 26.6808C87.4617 25.3741 88.0323 24.9075 89.4867 25.0262L90.6739 25.1227L90.5325 24.2126C90.4542 23.7124 90.3795 23.2892 90.366 23.2724C90.2139 23.0891 88.3104 23.0555 87.5661 23.2228ZM31.7689 25.8114L30.3946 28.2089L33.1378 28.2717C34.6462 28.3062 35.9179 28.2983 35.9629 28.2531C36.0673 28.1504 33.5689 23.6743 33.3241 23.5256C33.2242 23.4645 32.5249 24.4932 31.7689 25.8114ZM234.182 24.2878C229.324 25.2803 228.808 31.643 233.44 33.4384C235.118 34.0891 238.455 33.5694 239.334 32.5212C239.877 31.8749 238.284 30.6727 237.451 31.0994C236.28 31.7005 234.486 31.5518 233.711 30.7904C232.704 29.7998 232.789 29.7697 236.619 29.7697H240.19L240.158 28.586C240.08 25.7335 237.209 23.6681 234.182 24.2878ZM273.287 24.2267C266.301 25.8973 268.352 34.8487 275.441 33.6234C279.081 32.9948 280.659 28.6674 278.257 25.907C277.191 24.6818 274.786 23.8691 273.287 24.2267ZM296.411 24.2356C290.074 25.6353 291.031 33.7509 297.528 33.7146C299.027 33.7057 300.677 33.1728 301.223 32.5212C301.734 31.9121 300.123 30.6125 299.441 31.0826C298.451 31.7643 296.391 31.5713 295.544 30.7178L294.824 29.9928L298.451 29.8812L302.078 29.7697L302.051 28.6462C301.981 25.8079 299.187 23.6221 296.411 24.2356ZM316.247 24.2896C312.299 25.0855 310.813 29.7449 313.669 32.3787C315.271 33.8554 318.085 34.1732 320.087 33.1011C325.135 30.3982 321.97 23.1369 316.247 24.2896ZM338.423 24.3861C333.838 25.637 333.483 31.7625 337.898 33.4561C339.843 34.2024 342.715 33.5482 344.006 32.0653C347.237 28.3523 343.372 23.036 338.423 24.3861ZM204.257 28.9906V33.6942L205.562 33.6278L206.865 33.5606V30.9356C206.865 27.9468 206.792 27.9468 208.522 30.9392C210.036 33.5579 210.332 33.5216 212.164 30.4947L213.547 28.2089L213.55 30.9409L213.553 33.6721H214.799H216.046V28.9897V24.3064L214.742 24.3091L213.439 24.3117L211.863 26.9836L210.288 29.6555L209.677 28.5975C209.342 28.0159 208.669 26.8375 208.182 25.9788L207.298 24.418L205.778 24.3516L204.257 24.286V28.9906ZM218.766 28.9897V33.6721H220.117H221.468L221.534 31.9856L221.6 30.2982L223.584 30.2575L225.568 30.2159V31.9546V33.6933L226.945 33.627L228.321 33.5606L228.333 28.9897L228.346 24.418L226.956 24.3516L225.568 24.2852V26.0797V27.8742H223.527H221.487V26.0903V24.3064H220.126H218.766V28.9897ZM257.305 28.9897V33.6721L258.609 33.6588L259.913 33.6455L262.066 31.0179L264.22 28.3895L264.284 31.0312L264.347 33.6721H265.814H267.28V28.9897V24.3064H265.944H264.608L262.373 27.0004L260.139 29.6935L260.075 27.0004L260.012 24.3064H258.659H257.305V28.9897ZM282.141 24.58C282.09 24.7358 282.006 26.0708 281.954 27.5466C281.847 30.5257 281.625 31.1738 280.643 31.3668C279.538 31.5845 279.623 33.5827 280.743 33.7119C283.178 33.9917 284.103 32.6885 284.422 28.5249L284.574 26.5365H286.015H287.456V30.1149V33.6933L288.874 33.627L290.29 33.5606L290.255 28.9897L290.22 24.418L286.226 24.3569C283.148 24.3099 282.211 24.3613 282.141 24.58ZM302.735 24.6198C302.669 24.7916 302.646 25.2687 302.686 25.6786L302.759 26.425L304.402 26.4905L306.046 26.556V30.114V33.6721H307.406H308.766V30.1043V26.5365H310.353H311.94V25.421V24.3064H307.399C303.708 24.3064 302.835 24.3648 302.735 24.6198ZM324.408 28.9897V33.6721L327.639 33.6677C331.905 33.6606 333.101 33.187 333.398 31.3853C333.551 30.4602 333.011 29.3093 332.325 29.0951C331.857 28.949 331.859 28.933 332.466 28.3107C332.931 27.8326 333.085 27.451 333.085 26.7747C333.085 24.881 331.815 24.3179 327.526 24.3108L324.408 24.3064V28.9897ZM34.2906 25.9876C35.0872 27.2846 35.1358 27.2049 33.5383 27.2049H32.164L32.7805 26.0903C33.532 24.7331 33.5212 24.734 34.2906 25.9876ZM107.517 26.1009C107.802 27.2917 107.414 28.0973 106.555 28.0973H105.869V26.6339V25.1705L106.599 25.2395C107.227 25.2997 107.355 25.4201 107.517 26.1009ZM24.4843 26.8712C24.4843 27.9698 24.3853 28.0575 23.7652 27.505C23.2531 27.0491 23.245 26.7977 23.7256 26.2753C24.307 25.6432 24.4843 25.7822 24.4843 26.8712ZM41.8273 26.3134C42.2233 26.7437 42.2233 26.7747 41.8273 27.2049C41.2225 27.8618 41.0335 27.7556 41.0335 26.7596C41.0335 25.7627 41.2225 25.6565 41.8273 26.3134ZM198 27.3722C197.802 29.0047 197.817 28.9897 196.448 28.9897H195.198L195.327 27.93C195.524 26.2975 195.509 26.3134 196.878 26.3134H198.128L198 27.3722ZM236.92 26.965C237.964 27.9928 237.816 28.0973 235.316 28.0973C232.859 28.0973 232.755 28.0291 233.635 26.9995C234.465 26.0301 235.954 26.0142 236.92 26.965ZM246.999 31.6191C246.934 31.6837 246.471 31.6164 245.971 31.4686C243.505 30.7417 243.695 27.0703 246.225 26.5604L246.99 26.4055L247.055 28.9543C247.09 30.3557 247.065 31.5544 246.999 31.6191ZM252.083 27.3076C253.189 28.4656 252.767 30.6302 251.303 31.3136C249.847 31.9936 249.824 31.9581 249.824 29.0127V26.3603L250.714 26.5825C251.202 26.7047 251.818 27.0305 252.083 27.3076ZM298.884 26.9995C299.765 28.0291 299.661 28.0973 297.205 28.0973C294.704 28.0973 294.555 27.9928 295.6 26.965C296.567 26.0142 298.055 26.0301 298.884 26.9995ZM330.257 26.5808C331.1 27.4094 330.38 28.0442 328.514 28.1194L327.067 28.1779L327.042 27.2456L327.016 26.3134H328.501C329.353 26.3134 330.102 26.4276 330.257 26.5808ZM275.454 26.7658C276.038 27.073 276.575 28.1389 276.575 28.9897C276.575 31.4978 273.294 32.4946 272.157 30.3318C270.946 28.0283 273.206 25.583 275.454 26.7658ZM319.023 27.0969C320.628 28.6772 319.618 31.442 317.434 31.442C315.313 31.442 314.267 28.8985 315.701 27.2226C316.496 26.293 318.143 26.2311 319.023 27.0969ZM341.569 27.0748C343.186 28.4426 342.125 31.442 340.023 31.442C337.988 31.442 336.913 29.5244 337.898 27.6511C338.559 26.3922 340.417 26.1 341.569 27.0748ZM330.717 30.5071C330.848 31.4119 330.392 31.6651 328.631 31.6651L327.016 31.666L327.057 30.7178C327.08 30.1964 327.105 29.7697 327.114 29.7697C329.36 29.7697 330.649 30.0335 330.717 30.5071ZM39.4467 32.669C39.4467 33.4198 39.4153 33.449 38.6089 33.449H37.771L38.5396 32.669C38.9626 32.2397 39.3397 31.8882 39.3775 31.8882C39.4153 31.8882 39.4467 32.2397 39.4467 32.669ZM27.0853 32.7735C27.6253 33.3286 27.6712 33.4587 27.367 33.5729C26.6389 33.8483 26.1871 33.5818 26.1133 32.8346C26.0251 31.9378 26.2564 31.9236 27.0853 32.7735ZM33.3358 35.5569C32.8345 36.0819 32.7931 36.0881 32.2837 35.7243C31.5034 35.1665 31.6159 35.0107 32.7985 35.0107H33.8578L33.3358 35.5569ZM28.2949 77.325C27.6505 78.0624 27.6658 78.2262 28.5541 80.0907C31.3189 85.8957 31.3216 92.7205 28.5613 98.5157C27.5677 100.6 27.6019 101.33 28.7053 101.603C30.7681 102.112 33.298 95.4163 33.3178 89.3962C33.3394 82.774 30.1759 75.1701 28.2949 77.325ZM23.3512 79.8331C22.7509 80.4236 22.7761 80.7246 23.5519 82.2367C25.8739 86.7624 25.8271 92.0202 23.4241 96.6894C22.5619 98.3644 23.5159 99.8995 24.9163 99.0912C25.5247 98.7397 26.9386 95.6633 27.4246 93.6315C28.9591 87.2192 26.0071 77.2205 23.3512 79.8331ZM18.5902 82.2862C17.9881 82.8785 18.0151 83.1981 18.8071 84.8315C20.2066 87.7159 20.2039 90.9596 18.7999 93.8803C18.0268 95.4889 17.9854 95.9085 18.5515 96.4122C20.8906 98.4945 23.4169 91.0623 22.0867 86.0116C21.2065 82.6722 19.762 81.1336 18.5902 82.2862ZM13.9588 84.6438C13.4584 85.1361 13.516 85.7938 14.1703 87.0625C14.9218 88.5197 14.9209 90.0265 14.1676 91.6183C12.8284 94.4478 14.8516 95.7819 16.4392 93.1171C18.5668 89.5467 16.4221 82.2207 13.9588 84.6438Z" fill="#F9F4F8"/>
<path fill-rule="evenodd" clip-rule="evenodd" d="M47.9481 73.1942C46.5135 73.6971 45.3894 74.6736 44.7342 75.9856L44.0934 77.2693L44.0205 83.0114L43.9467 88.7536H50.991H58.0362V87.0697C58.0362 84.0499 58.9335 83.1035 61.908 82.9893L63.9302 82.9114V77.9156V72.9207L56.2785 72.9384C51.4689 72.949 48.3756 73.0446 47.9481 73.1942ZM64.8366 77.9271V82.9557L66.7067 82.9565C69.8738 82.9574 70.844 83.8835 70.844 86.9024V88.7518L77.8154 88.7527L84.7868 88.7536V83.1487C84.7868 76.9347 84.6869 76.3061 83.4791 74.9179C81.8411 73.0358 81.8681 73.0411 72.8276 72.9658L64.8366 72.8994V77.9271ZM59.6048 84.4996L58.9424 85.1512V89.0599C58.9424 94.8162 58.7867 94.663 64.6403 94.663H68.6804L69.3096 94.0451C69.9351 93.4298 69.9378 93.4129 70.0107 89.9301C70.1412 83.7135 70.2626 83.8472 64.49 83.8472H60.2681L59.6048 84.4996ZM44.0205 95.165C44.1114 101.355 44.331 102.245 46.086 103.562C47.7222 104.79 47.8824 104.81 56.2146 104.81H63.9302V100.124V95.4394L62.1231 95.466C59.0325 95.5103 58.0371 94.5134 58.0362 91.3741V89.6451H50.9883H43.9395L44.0205 95.165ZM70.9575 91.2475C70.9575 94.3682 69.9107 95.4474 66.8156 95.5147L64.95 95.5554L64.8888 100.193L64.8275 104.831L72.9366 104.764C81.8672 104.691 81.6674 104.721 83.1822 103.231C84.6465 101.791 84.6662 101.691 84.7436 95.3881L84.8147 89.6451H77.8857H70.9575V91.2475Z" fill="#AFA3AC"/>
<path fill-rule="evenodd" clip-rule="evenodd" d="M306.105 185.578L303.373 202.826H307.744L310.476 185.578H306.105ZM304.219 185.578L297.265 202.826H292.711L288.924 187.882C289.559 188.273 290.217 188.73 290.869 189.265C293.074 191.076 294.242 193.198 294.747 194.315L294.855 194.887L295.348 197.441L299.515 185.578H304.219ZM291.421 185.578C293.336 185.578 293.515 187.12 293.515 187.12L294.972 194.902C294.972 194.902 294 191.737 290.935 189.231C287.727 186.61 284.383 185.868 284.383 185.868L284.464 185.578H291.421ZM316.708 190.255C316.708 188.305 320.965 188.556 322.835 189.615L323.459 185.91C323.459 185.91 321.534 185.158 319.528 185.158C317.359 185.158 312.208 186.133 312.208 190.868C312.208 195.325 318.253 195.38 318.253 197.72C318.253 200.059 312.831 199.641 311.042 198.165L310.392 202.037C310.392 202.037 312.343 203.012 315.326 203.012C318.308 203.012 322.808 201.425 322.808 197.107C322.808 192.623 316.708 192.205 316.708 190.255ZM334.414 185.578H330.9C329.277 185.578 328.882 186.864 328.882 186.864L322.364 202.826H326.919L327.831 200.264H333.387L333.9 202.826H337.913L334.414 185.578ZM329.382 196.653L331.679 190.198L332.971 196.653H329.382Z" fill="white"/>
</g>
<defs>
<filter id="filter0_d" x="-24.1904" y="-19.8818" width="276.848" height="192.091" filterUnits="userSpaceOnUse" color-interpolation-filters="sRGB">
<feFlood flood-opacity="0" result="BackgroundImageFix"/>
<feColorMatrix in="SourceAlpha" type="matrix" values="0 0 0 0 0 0 0 0 0 0 0 0 0 0 0 0 0 0 127 0"/>
<feOffset dy="4"/>
<feGaussianBlur stdDeviation="12"/>
<feColorMatrix type="matrix" values="0 0 0 0 0 0 0 0 0 0 0 0 0 0 0 0 0 0 0.08 0"/>
<feBlend mode="normal" in2="BackgroundImageFix" result="effect1_dropShadow"/>
<feBlend mode="normal" in="SourceGraphic" in2="effect1_dropShadow" result="shape"/>
</filter>
<clipPath id="clip0">
<rect width="360" height="223" fill="white"/>
</clipPath>
</defs>
</svg>
