<svg width="65" height="65" viewBox="0 0 65 65" fill="none" xmlns="http://www.w3.org/2000/svg">
<path d="M32.5 10.1562C26.5741 10.1563 20.8908 12.5103 16.7006 16.7006C12.5103 20.8908 10.1563 26.5741 10.1562 32.5C10.1563 38.4259 12.5103 44.1092 16.7006 48.2994C20.8908 52.4897 26.5741 54.8438 32.5 54.8438C38.4259 54.8438 44.1092 52.4897 48.2994 48.2994C52.4897 44.1092 54.8438 38.4259 54.8438 32.5C54.8438 26.5741 52.4897 20.8908 48.2994 16.7006C44.1092 12.5103 38.4259 10.1563 32.5 10.1562Z" stroke="#4D565F" stroke-width="2" stroke-miterlimit="10"/>
<path d="M54.7158 34.86C54.7199 34.8275 54.726 34.797 54.728 34.7666C54.726 34.797 54.7199 34.8275 54.7158 34.86ZM10.27 34.7584C10.2741 34.8011 10.2822 34.8438 10.2863 34.8864C10.2842 34.8417 10.2741 34.7991 10.27 34.7584ZM35.5246 38.4228H41.3075L42.2155 32.5484H35.5246V29.337C35.5246 26.8975 36.3228 24.7322 38.6039 24.7322H42.2724V19.6074C41.6285 19.52 40.2655 19.3291 37.6899 19.3291C32.3111 19.3291 29.1586 22.1688 29.1586 28.6403V32.5484H23.6296V38.4228H29.1586V54.5672C30.2535 54.7317 31.3625 54.8435 32.5 54.8435C33.5299 54.8435 34.5333 54.75 35.5246 54.616V38.4228Z" fill="#4D565F"/>
</svg>
