<svg width="65" height="65" viewBox="0 0 65 65" fill="none" xmlns="http://www.w3.org/2000/svg">
<path d="M23.268 52.8125H41.7341C47.8522 52.8125 52.8125 47.8522 52.8125 41.732V23.2659C52.8125 17.1478 47.8522 12.1875 41.732 12.1875H23.2659C17.1478 12.1875 12.1875 17.1478 12.1875 23.268V41.7341C12.1875 47.8522 17.1478 52.8125 23.268 52.8125Z" stroke="#4D565F" stroke-width="2" stroke-miterlimit="10"/>
<path d="M32.5 22.3438C29.8064 22.3438 27.2231 23.4138 25.3184 25.3184C23.4138 27.2231 22.3438 29.8064 22.3438 32.5C22.3438 35.1936 23.4138 37.7769 25.3184 39.6816C27.2231 41.5862 29.8064 42.6562 32.5 42.6562C35.1936 42.6562 37.7769 41.5862 39.6816 39.6816C41.5862 37.7769 42.6562 35.1936 42.6562 32.5C42.6562 29.8064 41.5862 27.2231 39.6816 25.3184C37.7769 23.4138 35.1936 22.3438 32.5 22.3438Z" stroke="#4D565F" stroke-width="2" stroke-miterlimit="10"/>
<path d="M44.5027 18.651C44.013 18.651 43.5433 18.8455 43.197 19.1918C42.8508 19.538 42.6562 20.0077 42.6562 20.4974C42.6562 20.9871 42.8508 21.4567 43.197 21.803C43.5433 22.1493 44.013 22.3438 44.5027 22.3438C44.9924 22.3438 45.462 22.1493 45.8083 21.803C46.1545 21.4567 46.3491 20.9871 46.3491 20.4974C46.3491 20.0077 46.1545 19.538 45.8083 19.1918C45.462 18.8455 44.9924 18.651 44.5027 18.651Z" fill="#4D565F"/>
</svg>
