<svg width="65" height="65" viewBox="0 0 65 65" fill="none" xmlns="http://www.w3.org/2000/svg">
<path fill-rule="evenodd" clip-rule="evenodd" d="M18.4478 12.1875H46.5522C50.0094 12.1875 52.8125 14.9906 52.8125 18.4478V46.5522C52.8125 50.0094 50.0094 52.8125 46.5522 52.8125H18.4478C14.9906 52.8125 12.1875 50.0094 12.1875 46.5522V18.4478C12.1875 14.9906 14.9906 12.1875 18.4478 12.1875Z" stroke="#4D565F" stroke-width="2" stroke-miterlimit="10"/>
<path fill-rule="evenodd" clip-rule="evenodd" d="M32.1588 40.6272H33.8203C33.8203 40.6272 34.3221 40.5723 34.578 40.2961C34.8136 40.0422 34.8055 39.5669 34.8055 39.5669C34.8055 39.5669 34.773 37.3365 35.8069 37.0095C36.8266 36.6865 38.1368 39.1647 39.5261 40.1173C40.5763 40.8384 41.3746 40.68 41.3746 40.68L45.0877 40.6272C45.0877 40.6272 47.0296 40.5073 46.1094 38.9798C46.0343 38.8559 45.5732 37.8505 43.3489 35.7867C41.0211 33.6255 41.3319 33.9748 44.1371 30.2373C45.8453 27.9603 46.5278 26.5709 46.3146 25.9758C46.1114 25.409 44.8541 25.5594 44.8541 25.5594L40.6738 25.5858C40.6738 25.5858 40.363 25.5431 40.1335 25.6812C39.908 25.8153 39.7638 26.1301 39.7638 26.1301C39.7638 26.1301 39.1016 27.8912 38.22 29.3903C36.3594 32.5509 35.6139 32.7175 35.3093 32.5225C34.6003 32.0655 34.7791 30.6842 34.7791 29.7051C34.7791 26.642 35.2443 25.3644 33.8752 25.0333C33.4202 24.9236 33.0871 24.8505 31.9232 24.8383C30.4322 24.824 29.1688 24.8423 28.4538 25.1937C27.9785 25.4273 27.6108 25.9453 27.8343 25.9758C28.1105 26.0123 28.7361 26.1444 29.0672 26.5953C29.4958 27.1783 29.4816 28.4864 29.4816 28.4864C29.4816 28.4864 29.7274 32.0919 28.9068 32.5408C28.3441 32.8475 27.5702 32.2198 25.9107 29.3537C25.0596 27.8851 24.4177 26.2601 24.4177 26.2601C24.4177 26.2601 24.2938 25.9575 24.0724 25.795C23.8043 25.598 23.4305 25.535 23.4305 25.535L19.4574 25.5614C19.4574 25.5614 18.8602 25.5776 18.6428 25.8376C18.4478 26.0692 18.6266 26.5445 18.6266 26.5445C18.6266 26.5445 21.7364 33.8205 25.2586 37.4869C28.4924 40.8465 32.1588 40.6272 32.1588 40.6272Z" fill="#4D565F"/>
</svg>
